<svg width="30" height="31" viewBox="0 0 30 31" fill="none" xmlns="http://www.w3.org/2000/svg">
<path d="M21.2285 0.583162C22.3768 0.543515 23.5212 0.73826 24.5917 1.15551C25.6622 1.57277 26.6365 2.20378 27.4551 3.01004C28.2441 3.82856 28.8611 4.79696 29.2695 5.85801C29.678 6.91905 29.8695 8.0512 29.8329 9.18754V21.3955C29.8329 23.9449 28.9995 26.1389 27.4061 27.6833C25.7157 29.2439 23.4788 30.0761 21.1795 29.9998H9.06966C6.78957 30.0705 4.57382 29.2379 2.90442 27.6833C2.07689 26.8544 1.42891 25.864 1.00083 24.7738C0.572759 23.6836 0.37377 22.5169 0.41626 21.3464V9.18754C0.41626 4.01511 3.84821 0.583162 9.02064 0.583162H21.2285ZM21.2898 3.31646H9.06966C7.29241 3.31646 5.76029 3.84351 4.74296 4.84858C4.19936 5.42758 3.77808 6.11024 3.5043 6.85576C3.23052 7.60127 3.10987 8.39433 3.14956 9.18754V21.3464C3.14956 23.185 3.67661 24.6558 4.74296 25.7344C5.93227 26.7863 7.48341 27.3356 9.06966 27.2665H21.1795C22.7658 27.3356 24.3169 26.7863 25.5062 25.7344C26.0772 25.1695 26.5246 24.4921 26.82 23.7452C27.1154 22.9983 27.2523 22.1981 27.2222 21.3955V9.18754C27.2617 7.60966 26.691 6.07736 25.6288 4.90986C25.0498 4.36626 24.3671 3.94498 23.6216 3.6712C22.8761 3.39743 22.083 3.27677 21.2898 3.31646ZM15.1246 7.64316C19.2797 7.64316 22.7239 11.0751 22.7239 15.2425C22.7239 17.2579 21.9233 19.1908 20.4981 20.616C19.073 22.0411 17.1401 22.8418 15.1246 22.8418C13.1091 22.8418 11.1762 22.0411 9.75107 20.616C8.32593 19.1908 7.52529 17.2579 7.52529 15.2425C7.52529 13.227 8.32593 11.2941 9.75107 9.86895C11.1762 8.4438 13.1091 7.64316 15.1246 7.64316ZM15.1246 10.3642C13.836 10.3706 12.6021 10.8854 11.6909 11.7965C10.7798 12.7077 10.265 13.9417 10.2586 15.2302C10.265 16.5188 10.7798 17.7527 11.6909 18.6639C12.6021 19.575 13.836 20.0898 15.1246 20.0962C16.4132 20.0898 17.6471 19.575 18.5583 18.6639C19.4694 17.7527 19.9842 16.5188 19.9906 15.2302C19.9842 13.9417 19.4694 12.7077 18.5583 11.7965C17.6471 10.8854 16.4132 10.3706 15.1246 10.3642ZM23.0181 5.74334C23.4732 5.74334 23.9096 5.92413 24.2314 6.24593C24.5532 6.56774 24.734 7.0042 24.734 7.45931C24.734 7.91441 24.5532 8.35088 24.2314 8.67268C23.9096 8.99449 23.4732 9.17528 23.0181 9.17528C22.563 9.17528 22.1265 8.99449 21.8047 8.67268C21.4829 8.35088 21.3021 7.91441 21.3021 7.45931C21.3021 7.0042 21.4829 6.56774 21.8047 6.24593C22.1265 5.92413 22.563 5.74334 23.0181 5.74334Z" fill="white"/>
</svg>
